{
 "cells": [
  {
   "cell_type": "code",
   "execution_count": 1,
   "metadata": {},
   "outputs": [
    {
     "name": "stdout",
     "output_type": "stream",
     "text": [
      "ffmpeg合併過程中發生錯誤: ffmpeg error (see stderr output for detail)\n",
      "ffmpeg命令輸出: ffmpeg version 7.0.1-full_build-www.gyan.dev Copyright (c) 2000-2024 the FFmpeg developers\n",
      "  built with gcc 13.2.0 (Rev5, Built by MSYS2 project)\n",
      "  configuration: --enable-gpl --enable-version3 --enable-static --disable-w32threads --disable-autodetect --enable-fontconfig --enable-iconv --enable-gnutls --enable-libxml2 --enable-gmp --enable-bzlib --enable-lzma --enable-libsnappy --enable-zlib --enable-librist --enable-libsrt --enable-libssh --enable-libzmq --enable-avisynth --enable-libbluray --enable-libcaca --enable-sdl2 --enable-libaribb24 --enable-libaribcaption --enable-libdav1d --enable-libdavs2 --enable-libuavs3d --enable-libxevd --enable-libzvbi --enable-librav1e --enable-libsvtav1 --enable-libwebp --enable-libx264 --enable-libx265 --enable-libxavs2 --enable-libxeve --enable-libxvid --enable-libaom --enable-libjxl --enable-libopenjpeg --enable-libvpx --enable-mediafoundation --enable-libass --enable-frei0r --enable-libfreetype --enable-libfribidi --enable-libharfbuzz --enable-liblensfun --enable-libvidstab --enable-libvmaf --enable-libzimg --enable-amf --enable-cuda-llvm --enable-cuvid --enable-dxva2 --enable-d3d11va --enable-d3d12va --enable-ffnvcodec --enable-libvpl --enable-nvdec --enable-nvenc --enable-vaapi --enable-libshaderc --enable-vulkan --enable-libplacebo --enable-opencl --enable-libcdio --enable-libgme --enable-libmodplug --enable-libopenmpt --enable-libopencore-amrwb --enable-libmp3lame --enable-libshine --enable-libtheora --enable-libtwolame --enable-libvo-amrwbenc --enable-libcodec2 --enable-libilbc --enable-libgsm --enable-libopencore-amrnb --enable-libopus --enable-libspeex --enable-libvorbis --enable-ladspa --enable-libbs2b --enable-libflite --enable-libmysofa --enable-librubberband --enable-libsoxr --enable-chromaprint\n",
      "  libavutil      59.  8.100 / 59.  8.100\n",
      "  libavcodec     61.  3.100 / 61.  3.100\n",
      "  libavformat    61.  1.100 / 61.  1.100\n",
      "  libavdevice    61.  1.100 / 61.  1.100\n",
      "  libavfilter    10.  1.100 / 10.  1.100\n",
      "  libswscale      8.  1.100 /  8.  1.100\n",
      "  libswresample   5.  1.100 /  5.  1.100\n",
      "  libpostproc    58.  1.100 / 58.  1.100\n",
      "Input #0, mov,mp4,m4a,3gp,3g2,mj2, from 'C:/Users/Lu/Documents/youtube/python_231212V.mp4':\n",
      "  Metadata:\n",
      "    major_brand     : dash\n",
      "    minor_version   : 0\n",
      "    compatible_brands: iso6avc1mp41\n",
      "    creation_time   : 2023-11-29T20:33:08.000000Z\n",
      "  Duration: 02:51:35.00, start: 0.000000, bitrate: 434 kb/s\n",
      "  Stream #0:0[0x1](und): Video: h264 (High) (avc1 / 0x31637661), yuv420p(tv, bt709, progressive), 1920x1080 [SAR 1:1 DAR 16:9], 0 kb/s, 30 fps, 30 tbr, 15360 tbn (default)\n",
      "      Metadata:\n",
      "        creation_time   : 2023-11-29T20:33:08.000000Z\n",
      "        handler_name    : ISO Media file produced by Google Inc.\n",
      "        vendor_id       : [0][0][0][0]\n",
      "Input #1, mov,mp4,m4a,3gp,3g2,mj2, from 'C:/Users/Lu/Documents/youtube/python_231212A.mp4':\n",
      "  Metadata:\n",
      "    major_brand     : dash\n",
      "    minor_version   : 0\n",
      "    compatible_brands: iso6mp41\n",
      "    creation_time   : 2023-11-29T20:33:06.000000Z\n",
      "  Duration: 02:51:35.05, start: 0.000000, bitrate: 129 kb/s\n",
      "  Stream #1:0[0x1](eng): Audio: aac (LC) (mp4a / 0x6134706D), 44100 Hz, stereo, fltp, 0 kb/s (default)\n",
      "      Metadata:\n",
      "        creation_time   : 2023-11-29T20:33:06.000000Z\n",
      "        handler_name    : ISO Media file produced by Google Inc.\n",
      "        vendor_id       : [0][0][0][0]\n",
      "[out#0/mp4 @ 0000027979b0b6c0] Output with label '0:v, 1:a' does not exist in any defined filter graph, or was already used elsewhere.\n",
      "Error opening output file C:/Users/Lu/Documents/youtube/python_231212All.mp4.\n",
      "Error opening output files: Invalid argument\n",
      "\n"
     ]
    }
   ],
   "source": [
    "import ffmpeg\n",
    "\n",
    "def merge_video_and_audio(video_path, audio_path, output_path):\n",
    "    try:\n",
    "        video = ffmpeg.input(video_path)\n",
    "        audio = ffmpeg.input(audio_path)\n",
    "        # 使用列表來傳遞多個 map 參數\n",
    "        output = ffmpeg.output(video, audio, output_path, vcodec='copy', acodec='copy', **{'map': ['0:v', '1:a']})\n",
    "        # 使用 capture_stdout 和 capture_stderr 捕獲詳細信息\n",
    "        ffmpeg.run(output, overwrite_output=True, capture_stdout=True, capture_stderr=True)\n",
    "        print(\"合併成功！輸出文件位於:\", output_path)\n",
    "    except ffmpeg.Error as e:\n",
    "        print(\"ffmpeg合併過程中發生錯誤:\", e)\n",
    "        # 檢查 stderr 是否為 None\n",
    "        if e.stderr:\n",
    "            print(\"ffmpeg命令輸出:\", e.stderr.decode('utf8'))\n",
    "        else:\n",
    "            print(\"無法獲取 ffmpeg 錯誤輸出。\")\n",
    "\n",
    "merge_video_and_audio(\"C:/Users/Lu/Documents/youtube/python_231212V.mp4\", \"C:/Users/Lu/Documents/youtube/python_231212A.mp4\", \"C:/Users/Lu/Documents/youtube/python_231212All.mp4\")\n"
   ]
  },
  {
   "cell_type": "code",
   "execution_count": 2,
   "metadata": {},
   "outputs": [
    {
     "name": "stdout",
     "output_type": "stream",
     "text": [
      "ffmpeg合併過程中發生錯誤: ffmpeg error (see stderr output for detail)\n",
      "ffmpeg命令輸出: ffmpeg version 7.0.1-full_build-www.gyan.dev Copyright (c) 2000-2024 the FFmpeg developers\n",
      "  built with gcc 13.2.0 (Rev5, Built by MSYS2 project)\n",
      "  configuration: --enable-gpl --enable-version3 --enable-static --disable-w32threads --disable-autodetect --enable-fontconfig --enable-iconv --enable-gnutls --enable-libxml2 --enable-gmp --enable-bzlib --enable-lzma --enable-libsnappy --enable-zlib --enable-librist --enable-libsrt --enable-libssh --enable-libzmq --enable-avisynth --enable-libbluray --enable-libcaca --enable-sdl2 --enable-libaribb24 --enable-libaribcaption --enable-libdav1d --enable-libdavs2 --enable-libuavs3d --enable-libxevd --enable-libzvbi --enable-librav1e --enable-libsvtav1 --enable-libwebp --enable-libx264 --enable-libx265 --enable-libxavs2 --enable-libxeve --enable-libxvid --enable-libaom --enable-libjxl --enable-libopenjpeg --enable-libvpx --enable-mediafoundation --enable-libass --enable-frei0r --enable-libfreetype --enable-libfribidi --enable-libharfbuzz --enable-liblensfun --enable-libvidstab --enable-libvmaf --enable-libzimg --enable-amf --enable-cuda-llvm --enable-cuvid --enable-dxva2 --enable-d3d11va --enable-d3d12va --enable-ffnvcodec --enable-libvpl --enable-nvdec --enable-nvenc --enable-vaapi --enable-libshaderc --enable-vulkan --enable-libplacebo --enable-opencl --enable-libcdio --enable-libgme --enable-libmodplug --enable-libopenmpt --enable-libopencore-amrwb --enable-libmp3lame --enable-libshine --enable-libtheora --enable-libtwolame --enable-libvo-amrwbenc --enable-libcodec2 --enable-libilbc --enable-libgsm --enable-libopencore-amrnb --enable-libopus --enable-libspeex --enable-libvorbis --enable-ladspa --enable-libbs2b --enable-libflite --enable-libmysofa --enable-librubberband --enable-libsoxr --enable-chromaprint\n",
      "  libavutil      59.  8.100 / 59.  8.100\n",
      "  libavcodec     61.  3.100 / 61.  3.100\n",
      "  libavformat    61.  1.100 / 61.  1.100\n",
      "  libavdevice    61.  1.100 / 61.  1.100\n",
      "  libavfilter    10.  1.100 / 10.  1.100\n",
      "  libswscale      8.  1.100 /  8.  1.100\n",
      "  libswresample   5.  1.100 /  5.  1.100\n",
      "  libpostproc    58.  1.100 / 58.  1.100\n",
      "Input #0, mov,mp4,m4a,3gp,3g2,mj2, from 'C:/Users/Lu/Documents/youtube/python_231212V.mp4':\n",
      "  Metadata:\n",
      "    major_brand     : dash\n",
      "    minor_version   : 0\n",
      "    compatible_brands: iso6avc1mp41\n",
      "    creation_time   : 2023-11-29T20:33:08.000000Z\n",
      "  Duration: 02:51:35.00, start: 0.000000, bitrate: 434 kb/s\n",
      "  Stream #0:0[0x1](und): Video: h264 (High) (avc1 / 0x31637661), yuv420p(tv, bt709, progressive), 1920x1080 [SAR 1:1 DAR 16:9], 0 kb/s, 30 fps, 30 tbr, 15360 tbn (default)\n",
      "      Metadata:\n",
      "        creation_time   : 2023-11-29T20:33:08.000000Z\n",
      "        handler_name    : ISO Media file produced by Google Inc.\n",
      "        vendor_id       : [0][0][0][0]\n",
      "Input #1, mov,mp4,m4a,3gp,3g2,mj2, from 'C:/Users/Lu/Documents/youtube/python_231212A.mp4':\n",
      "  Metadata:\n",
      "    major_brand     : dash\n",
      "    minor_version   : 0\n",
      "    compatible_brands: iso6mp41\n",
      "    creation_time   : 2023-11-29T20:33:06.000000Z\n",
      "  Duration: 02:51:35.05, start: 0.000000, bitrate: 129 kb/s\n",
      "  Stream #1:0[0x1](eng): Audio: aac (LC) (mp4a / 0x6134706D), 44100 Hz, stereo, fltp, 0 kb/s (default)\n",
      "      Metadata:\n",
      "        creation_time   : 2023-11-29T20:33:06.000000Z\n",
      "        handler_name    : ISO Media file produced by Google Inc.\n",
      "        vendor_id       : [0][0][0][0]\n",
      "[out#0/mp4 @ 00000243f29eb6c0] Output with label '0:v, 1:a' does not exist in any defined filter graph, or was already used elsewhere.\n",
      "Error opening output file C:/Users/Lu/Documents/youtube/python_231212All.mp4.\n",
      "Error opening output files: Invalid argument\n",
      "\n"
     ]
    }
   ],
   "source": [
    "import ffmpeg\n",
    "\n",
    "def merge_video_and_audio(video_path, audio_path, output_path):\n",
    "    try:\n",
    "        video = ffmpeg.input(video_path)\n",
    "        audio = ffmpeg.input(audio_path)\n",
    "        # 使用列表來傳遞多個 map 參數\n",
    "        output = ffmpeg.output(video, audio, output_path, vcodec='copy', acodec='copy', **{'map': ['0:v', '1:a']})\n",
    "        # 使用 capture_stdout 和 capture_stderr 捕獲詳細信息\n",
    "        ffmpeg.run(output, overwrite_output=True, capture_stdout=True, capture_stderr=True)\n",
    "        print(\"合併成功！輸出文件位於:\", output_path)\n",
    "    except ffmpeg.Error as e:\n",
    "        print(\"ffmpeg合併過程中發生錯誤:\", e)\n",
    "        # 檢查 stderr 是否為 None\n",
    "        if e.stderr:\n",
    "            print(\"ffmpeg命令輸出:\", e.stderr.decode('utf8'))\n",
    "        else:\n",
    "            print(\"無法獲取 ffmpeg 錯誤輸出。\")\n",
    "\n",
    "merge_video_and_audio(\"C:/Users/Lu/Documents/youtube/python_231212V.mp4\", \"C:/Users/Lu/Documents/youtube/python_231212A.mp4\", \"C:/Users/Lu/Documents/youtube/python_231212All.mp4\")\n"
   ]
  }
 ],
 "metadata": {
  "kernelspec": {
   "display_name": "yt.venv",
   "language": "python",
   "name": "python3"
  },
  "language_info": {
   "codemirror_mode": {
    "name": "ipython",
    "version": 3
   },
   "file_extension": ".py",
   "mimetype": "text/x-python",
   "name": "python",
   "nbconvert_exporter": "python",
   "pygments_lexer": "ipython3",
   "version": "3.10.8"
  }
 },
 "nbformat": 4,
 "nbformat_minor": 2
}
